<?xml version="1.0" encoding="utf-8"?><svg xmlns="http://www.w3.org/2000/svg" xmlns:xlink="http://www.w3.org/1999/xlink" width="848" height="441.481" viewBox="0 0 848 441.481"><defs><filter id="a" x="315.802" y="0" width="505.933" height="213.823" filterUnits="userSpaceOnUse"><feOffset dy="3" input="SourceAlpha"/><feGaussianBlur stdDeviation="3" result="b"/><feFlood flood-opacity="0.161"/><feComposite operator="in" in2="b"/><feComposite in="SourceGraphic"/></filter><radialGradient id="c" cx="18.335" cy="-117.701" r="15840.015" gradientTransform="translate(17.936 -115.136) scale(0.022 0.022)" gradientUnits="userSpaceOnUse"><stop offset="0.002" stop-color="#cdf7f1"/><stop offset="1" stop-color="#5dcfca"/></radialGradient></defs><g transform="translate(-2861.773 -1687.164)"><g transform="translate(2861.773 1693.164)"><path d="M3518.2,2230.2c-59.48-.325-243.794-1.835-355.657-6.843-207.423-9.286-376.791,6.762-265.478,24.676,31.1,5.005-58.521,35.387,161.038,41.929,192.732,5.743,389.165-7.365,484.238-13s138.933-15.485,159.3-19.925C3719.548,2253.132,3726.118,2231.343,3518.2,2230.2Z" transform="translate(-2861.773 -1855.908)" fill="#dbe9f2"/><g transform="translate(324.802)"><g transform="matrix(1, 0, 0, 1, -324.8, -6)" filter="url(#a)"><rect width="487.933" height="195.822" transform="translate(324.8 6)" fill="#fff"/></g><rect width="117.57" height="195.822" transform="translate(370.363)" fill="#aebddc"/><g transform="translate(25.089 21.07)"><rect width="78.383" height="3.225" fill="#d9e1e4"/></g><g transform="translate(25.089 14.197)"><rect width="25.391" height="3.225" fill="#d9e1e4"/></g><g transform="translate(189.74 21.07)"><rect width="78.382" height="3.225" fill="#d9e1e4"/></g><g transform="translate(189.74 135.487)"><rect width="3.961" height="3.224" fill="#7d55c7"/></g><g transform="translate(189.74 143.241)"><rect width="65.979" height="3.222" fill="#d9e1e4"/></g><g transform="translate(189.74 150.993)"><rect width="48.304" height="3.222" fill="#d9e1e4"/></g><g transform="translate(278.117 135.487)"><rect width="3.959" height="3.224" fill="#3bb6d5"/></g><g transform="translate(278.117 143.241)"><rect width="65.98" height="3.222" fill="#d9e1e4"/></g><g transform="translate(278.117 150.993)"><rect width="48.303" height="3.222" fill="#d9e1e4"/></g><g transform="translate(189.74 14.197)"><rect width="25.392" height="3.225" fill="#d9e1e4"/></g><g transform="translate(389.473 21.07)"><rect width="78.382" height="3.225" fill="#cfd9e8"/></g><g transform="translate(389.473 14.197)"><rect width="25.393" height="3.225" fill="#cfd9e8"/></g><g transform="translate(14.973 31.033)"><g transform="translate(13.178)"><rect width="122.393" height="138.751" fill="none" stroke="#bac2c6" stroke-miterlimit="10" stroke-width="0.225"/><line x2="122.393" transform="translate(0 118.93)" fill="none" stroke="#bac2c6" stroke-miterlimit="10" stroke-width="0.225"/><line x2="122.393" transform="translate(0 99.109)" fill="none" stroke="#bac2c6" stroke-miterlimit="10" stroke-width="0.225"/><line x2="122.393" transform="translate(0 79.287)" fill="none" stroke="#bac2c6" stroke-miterlimit="10" stroke-width="0.225"/><line x2="122.393" transform="translate(0 59.464)" fill="none" stroke="#bac2c6" stroke-miterlimit="10" stroke-width="0.225"/><line x2="122.393" transform="translate(0 39.643)" fill="none" stroke="#bac2c6" stroke-miterlimit="10" stroke-width="0.225"/><line x2="122.393" transform="translate(0 19.821)" fill="none" stroke="#bac2c6" stroke-miterlimit="10" stroke-width="0.225"/><line y2="138.751" transform="translate(81.595)" fill="none" stroke="#bac2c6" stroke-miterlimit="10" stroke-width="0.225"/><line y2="138.751" transform="translate(40.797)" fill="none" stroke="#bac2c6" stroke-miterlimit="10" stroke-width="0.225"/></g><line x1="6.329" y2="6.33" transform="translate(6.849)" fill="none" stroke="#bac2c6" stroke-miterlimit="10" stroke-width="0.225"/><line x1="6.329" y2="6.33" transform="translate(6.849 19.821)" fill="none" stroke="#bac2c6" stroke-miterlimit="10" stroke-width="0.225"/><line x1="6.329" y2="6.331" transform="translate(6.849 39.643)" fill="none" stroke="#bac2c6" stroke-miterlimit="10" stroke-width="0.225"/><line x1="6.329" y2="6.33" transform="translate(6.849 59.464)" fill="none" stroke="#bac2c6" stroke-miterlimit="10" stroke-width="0.225"/><line x1="6.329" y2="6.33" transform="translate(6.849 79.287)" fill="none" stroke="#bac2c6" stroke-miterlimit="10" stroke-width="0.225"/><line x1="6.329" y2="6.33" transform="translate(6.849 99.109)" fill="none" stroke="#bac2c6" stroke-miterlimit="10" stroke-width="0.225"/><line x1="6.329" y2="6.329" transform="translate(6.849 118.93)" fill="none" stroke="#bac2c6" stroke-miterlimit="10" stroke-width="0.225"/><g transform="translate(0.492 125.298)"><path d="M3381.525,1932.168h-.01l-.625.338-.094-.371.785-.421H3382v3.6h-.471Z" transform="translate(-3380.796 -1931.654)" fill="#bac2c6"/><path d="M3386.992,1933.442c0,1.223-.454,1.9-1.25,1.9-.7,0-1.179-.658-1.189-1.847,0-1.206.52-1.87,1.25-1.87C3386.561,1931.622,3386.992,1932.3,3386.992,1933.442Zm-1.953.055c0,.935.288,1.466.73,1.466.5,0,.735-.581.735-1.5,0-.885-.226-1.467-.729-1.467C3385.35,1932,3385.04,1932.518,3385.04,1933.5Z" transform="translate(-3382.09 -1931.622)" fill="#bac2c6"/></g><g transform="translate(0.166 105.617)"><path d="M3380.3,1905.259v-.3l.381-.37c.918-.874,1.333-1.339,1.339-1.881a.642.642,0,0,0-.714-.7,1.225,1.225,0,0,0-.763.3l-.155-.343a1.574,1.574,0,0,1,1.017-.365,1.011,1.011,0,0,1,1.1,1.046c0,.663-.481,1.2-1.239,1.931l-.287.266v.011h1.615v.4Z" transform="translate(-3380.298 -1901.602)" fill="#bac2c6"/><path d="M3386.992,1903.422c0,1.223-.454,1.9-1.25,1.9-.7,0-1.179-.658-1.189-1.847,0-1.206.52-1.87,1.25-1.87C3386.561,1901.6,3386.992,1902.276,3386.992,1903.422Zm-1.953.055c0,.936.288,1.467.73,1.467.5,0,.735-.581.735-1.5,0-.885-.226-1.466-.729-1.466C3385.35,1901.978,3385.04,1902.5,3385.04,1903.477Z" transform="translate(-3381.763 -1901.602)" fill="#bac2c6"/></g><g transform="translate(0.149 85.936)"><path d="M3380.405,1874.679a1.627,1.627,0,0,0,.8.227c.625,0,.818-.4.814-.7-.006-.5-.46-.719-.93-.719h-.271v-.365h.271c.354,0,.8-.183.8-.609,0-.288-.182-.542-.631-.542a1.323,1.323,0,0,0-.718.237l-.128-.354a1.709,1.709,0,0,1,.941-.276c.708,0,1.029.42,1.029.858a.894.894,0,0,1-.663.846v.01a.938.938,0,0,1,.8.924c0,.576-.448,1.079-1.311,1.079a1.83,1.83,0,0,1-.935-.243Z" transform="translate(-3380.272 -1871.581)" fill="#bac2c6"/><path d="M3386.992,1873.4c0,1.223-.454,1.9-1.25,1.9-.7,0-1.179-.658-1.189-1.847,0-1.206.52-1.87,1.25-1.87C3386.561,1871.581,3386.992,1872.256,3386.992,1873.4Zm-1.953.055c0,.935.288,1.466.73,1.466.5,0,.735-.581.735-1.5,0-.885-.226-1.467-.729-1.467C3385.35,1871.957,3385.04,1872.477,3385.04,1873.456Z" transform="translate(-3381.746 -1871.581)" fill="#bac2c6"/></g><g transform="translate(0 66.255)"><path d="M3381.716,1845.25v-.979h-1.671v-.321l1.6-2.3h.526v2.235h.5v.381h-.5v.979Zm0-1.361v-1.2q0-.282.016-.565h-.016c-.111.211-.2.365-.3.531l-.879,1.223v.011Z" transform="translate(-3380.045 -1841.593)" fill="#bac2c6"/><path d="M3386.992,1843.381c0,1.223-.454,1.9-1.25,1.9-.7,0-1.179-.657-1.189-1.847,0-1.206.52-1.87,1.25-1.87C3386.561,1841.561,3386.992,1842.236,3386.992,1843.381Zm-1.953.055c0,.936.288,1.466.73,1.466.5,0,.735-.581.735-1.5,0-.885-.226-1.466-.729-1.466C3385.35,1841.937,3385.04,1842.457,3385.04,1843.436Z" transform="translate(-3381.597 -1841.561)" fill="#bac2c6"/></g><g transform="translate(0.149 46.574)"><path d="M3382.435,1812.043h-1.372l-.137.924a1.9,1.9,0,0,1,.292-.022,1.52,1.52,0,0,1,.774.193,1.025,1.025,0,0,1,.515.924,1.247,1.247,0,0,1-1.339,1.228,1.767,1.767,0,0,1-.9-.221l.122-.37a1.618,1.618,0,0,0,.769.2.793.793,0,0,0,.852-.78c-.006-.464-.316-.8-1.034-.8a3.658,3.658,0,0,0-.5.039l.232-1.726h1.72Z" transform="translate(-3380.272 -1811.573)" fill="#bac2c6"/><path d="M3386.992,1813.361c0,1.223-.454,1.9-1.25,1.9-.7,0-1.179-.658-1.189-1.848,0-1.206.52-1.87,1.25-1.87C3386.561,1811.541,3386.992,1812.216,3386.992,1813.361Zm-1.953.055c0,.936.288,1.467.73,1.467.5,0,.735-.581.735-1.5,0-.885-.226-1.466-.729-1.466C3385.35,1811.917,3385.04,1812.437,3385.04,1813.416Z" transform="translate(-3381.746 -1811.541)" fill="#bac2c6"/></g><g transform="translate(0.105 26.892)"><path d="M3382.319,1781.926a1.762,1.762,0,0,0-.366.022,1.462,1.462,0,0,0-1.25,1.278h.016a1.1,1.1,0,0,1,1.953.747,1.2,1.2,0,0,1-1.2,1.267c-.768,0-1.272-.6-1.272-1.532a2.262,2.262,0,0,1,.608-1.621,1.96,1.96,0,0,1,1.151-.531,2.4,2.4,0,0,1,.354-.028Zm-.139,2.074a.731.731,0,0,0-.741-.825.8.8,0,0,0-.7.443.418.418,0,0,0-.055.216c.011.592.282,1.029.791,1.029C3381.9,1784.863,3382.18,1784.515,3382.18,1784Z" transform="translate(-3380.205 -1781.522)" fill="#bac2c6"/><path d="M3386.992,1783.339c0,1.223-.454,1.9-1.25,1.9-.7,0-1.179-.658-1.189-1.847,0-1.206.52-1.87,1.25-1.87C3386.561,1781.519,3386.992,1782.194,3386.992,1783.339Zm-1.953.055c0,.935.288,1.466.73,1.466.5,0,.735-.581.735-1.5,0-.886-.226-1.467-.729-1.467C3385.35,1781.895,3385.04,1782.415,3385.04,1783.394Z" transform="translate(-3381.702 -1781.519)" fill="#bac2c6"/></g><g transform="translate(0.232 7.212)"><path d="M3382.667,1751.592v.321l-1.565,3.275h-.5l1.56-3.181V1752H3380.4v-.4Z" transform="translate(-3380.398 -1751.532)" fill="#bac2c6"/><path d="M3386.992,1753.32c0,1.223-.454,1.9-1.25,1.9-.7,0-1.179-.658-1.189-1.847,0-1.206.52-1.87,1.25-1.87C3386.561,1751.5,3386.992,1752.175,3386.992,1753.32Zm-1.953.055c0,.935.288,1.466.73,1.466.5,0,.735-.581.735-1.5,0-.886-.226-1.467-.729-1.467C3385.35,1751.876,3385.04,1752.4,3385.04,1753.375Z" transform="translate(-3381.829 -1751.5)" fill="#bac2c6"/></g><g transform="translate(26.059 142.416)"><path d="M3419.793,1961.391v-.3l.382-.37c.918-.874,1.333-1.339,1.339-1.881a.641.641,0,0,0-.714-.7,1.221,1.221,0,0,0-.763.3l-.155-.344a1.58,1.58,0,0,1,1.017-.365,1.012,1.012,0,0,1,1.1,1.046c0,.664-.48,1.2-1.239,1.931l-.287.265v.011h1.615v.4Z" transform="translate(-3419.793 -1957.734)" fill="#bac2c6"/><path d="M3426.487,1959.554c0,1.223-.454,1.9-1.25,1.9-.7,0-1.179-.658-1.189-1.848,0-1.206.52-1.87,1.25-1.87C3426.056,1957.734,3426.487,1958.409,3426.487,1959.554Zm-1.953.055c0,.935.288,1.466.73,1.466.5,0,.735-.581.735-1.5,0-.886-.226-1.467-.729-1.467C3424.844,1958.11,3424.534,1958.631,3424.534,1959.61Z" transform="translate(-3421.258 -1957.734)" fill="#bac2c6"/><path d="M3429.682,1958.281h-.01l-.625.338-.094-.37.785-.421h.415v3.6h-.471Z" transform="translate(-3422.948 -1957.766)" fill="#bac2c6"/><path d="M3435.156,1957.827v.321l-1.566,3.275h-.5l1.56-3.181v-.011h-1.758v-.4Z" transform="translate(-3424.303 -1957.766)" fill="#bac2c6"/></g><g transform="translate(67.68 142.416)"><path d="M3483.279,1961.391v-.3l.382-.37c.918-.874,1.333-1.339,1.339-1.881a.641.641,0,0,0-.713-.7,1.222,1.222,0,0,0-.764.3l-.155-.344a1.581,1.581,0,0,1,1.018-.365,1.012,1.012,0,0,1,1.1,1.046c0,.664-.48,1.2-1.239,1.931l-.288.265v.011h1.615v.4Z" transform="translate(-3483.279 -1957.734)" fill="#bac2c6"/><path d="M3489.974,1959.554c0,1.223-.454,1.9-1.25,1.9-.7,0-1.179-.658-1.19-1.848,0-1.206.52-1.87,1.25-1.87C3489.542,1957.734,3489.974,1958.409,3489.974,1959.554Zm-1.954.055c0,.935.289,1.466.731,1.466.5,0,.735-.581.735-1.5,0-.886-.227-1.467-.73-1.467C3488.331,1958.11,3488.021,1958.631,3488.021,1959.61Z" transform="translate(-3484.744 -1957.734)" fill="#bac2c6"/><path d="M3493.169,1958.281h-.011l-.625.338-.094-.37.785-.421h.415v3.6h-.47Z" transform="translate(-3486.434 -1957.766)" fill="#bac2c6"/><path d="M3496.2,1960.478a1.026,1.026,0,0,1,.713-.962l-.005-.017a.891.891,0,0,1-.57-.808,1.006,1.006,0,0,1,1.111-.957.929.929,0,0,1,1.046.885.915.915,0,0,1-.592.841v.017a1,1,0,0,1,.724.929,1.107,1.107,0,0,1-1.223,1.046C3496.658,1961.452,3496.2,1961,3496.2,1960.478Zm1.936-.022c0-.437-.3-.647-.791-.785a.782.782,0,0,0-.647.741.665.665,0,0,0,.72.686A.65.65,0,0,0,3498.141,1960.456Zm-1.339-1.8c0,.359.271.553.686.663a.708.708,0,0,0,.548-.652.559.559,0,0,0-.609-.587A.572.572,0,0,0,3496.8,1958.658Z" transform="translate(-3487.731 -1957.734)" fill="#bac2c6"/></g><g transform="translate(109.298 142.416)"><path d="M3546.762,1961.391v-.3l.382-.37c.918-.874,1.333-1.339,1.339-1.881a.641.641,0,0,0-.714-.7,1.22,1.22,0,0,0-.763.3l-.156-.344a1.582,1.582,0,0,1,1.019-.365,1.012,1.012,0,0,1,1.1,1.046c0,.664-.48,1.2-1.239,1.931l-.287.265v.011h1.615v.4Z" transform="translate(-3546.762 -1957.734)" fill="#bac2c6"/><path d="M3553.456,1959.554c0,1.223-.454,1.9-1.25,1.9-.7,0-1.179-.658-1.189-1.848,0-1.206.52-1.87,1.25-1.87C3553.025,1957.734,3553.456,1958.409,3553.456,1959.554Zm-1.953.055c0,.935.288,1.466.73,1.466.5,0,.736-.581.736-1.5,0-.886-.227-1.467-.73-1.467C3551.813,1958.11,3551.5,1958.631,3551.5,1959.61Z" transform="translate(-3548.227 -1957.734)" fill="#bac2c6"/><path d="M3556.651,1958.281h-.01l-.625.338-.094-.37.786-.421h.415v3.6h-.471Z" transform="translate(-3549.917 -1957.766)" fill="#bac2c6"/><path d="M3560.025,1961.048a2.034,2.034,0,0,0,.393-.016,1.358,1.358,0,0,0,.752-.349,1.572,1.572,0,0,0,.475-.957h-.016a1.053,1.053,0,0,1-.846.387,1.041,1.041,0,0,1-1.062-1.1,1.233,1.233,0,0,1,1.228-1.278c.736,0,1.189.6,1.189,1.516a2.272,2.272,0,0,1-.62,1.688,1.793,1.793,0,0,1-1.046.481,2.238,2.238,0,0,1-.448.027Zm.177-2.069a.692.692,0,0,0,.692.763.8.8,0,0,0,.708-.376.323.323,0,0,0,.044-.177c0-.615-.226-1.084-.736-1.084C3560.5,1958.1,3560.2,1958.469,3560.2,1958.979Z" transform="translate(-3551.225 -1957.734)" fill="#bac2c6"/></g><rect width="122.393" height="19.822" transform="translate(13.178 19.821)" fill="#fff" opacity="0.34"/><rect width="122.393" height="19.823" transform="translate(13.178 59.464)" fill="#fff" opacity="0.34"/><rect width="122.393" height="19.822" transform="translate(13.178 99.109)" fill="#fff" opacity="0.34"/><g transform="translate(13.178 19.821)"><rect width="55" height="3.165" fill="#7d55c7"/><rect width="94.481" height="3.165" transform="translate(0 8.329)" fill="#165670"/><rect width="33.674" height="3.165" transform="translate(0 16.657)" fill="#3bb6d5"/><rect width="99.281" height="3.165" transform="translate(0 39.643)" fill="#7d55c7"/><rect width="40.797" height="3.166" transform="translate(0 47.971)" fill="#165670"/><rect width="81.595" height="3.165" transform="translate(0 56.301)" fill="#3bb6d5"/><rect width="40.797" height="3.165" transform="translate(0 79.544)" fill="#7d55c7"/><rect width="81.595" height="3.165" transform="translate(0 87.872)" fill="#165670"/><rect width="67.347" height="3.164" transform="translate(0 96.2)" fill="#3bb6d5"/></g></g><g transform="translate(389.473 36.745)"><rect width="4.185" height="4.186" fill="#cfd9e8"/><rect width="4.186" height="4.186" transform="translate(11.86)" fill="#cfd9e8"/><rect width="4.186" height="4.186" transform="translate(23.72)" fill="#cfd9e8"/><rect width="4.186" height="4.186" transform="translate(35.583)" fill="#fff"/><rect width="4.186" height="4.186" transform="translate(47.443)" fill="#fff"/><rect width="4.186" height="4.186" transform="translate(59.303)" fill="#cfd9e8"/><rect width="4.186" height="4.186" transform="translate(71.164)" fill="#cfd9e8"/><rect width="4.185" height="4.186" transform="translate(0 10.466)" fill="#fff"/><rect width="4.186" height="4.186" transform="translate(11.86 10.466)" fill="#fff"/><rect width="4.186" height="4.186" transform="translate(23.72 10.466)" fill="#fff"/><rect width="4.186" height="4.186" transform="translate(35.583 10.466)" fill="#3bb6d5"/><rect width="4.186" height="4.186" transform="translate(47.443 10.466)" fill="#fff"/><rect width="4.186" height="4.186" transform="translate(59.303 10.466)" fill="#cfd9e8"/><rect width="4.186" height="4.186" transform="translate(71.164 10.466)" fill="#cfd9e8"/><rect width="4.185" height="4.186" transform="translate(0 20.931)" fill="#fff"/><rect width="4.186" height="4.186" transform="translate(11.86 20.931)" fill="#fff"/><rect width="4.186" height="4.186" transform="translate(23.72 20.931)" fill="#fff"/><rect width="4.186" height="4.186" transform="translate(35.583 20.931)" fill="#fff"/><rect width="4.186" height="4.186" transform="translate(47.443 20.931)" fill="#165670"/><rect width="4.186" height="4.186" transform="translate(59.303 20.931)" fill="#cfd9e8"/><rect width="4.186" height="4.186" transform="translate(71.164 20.931)" fill="#cfd9e8"/><rect width="4.185" height="4.186" transform="translate(0 31.396)" fill="#fff"/><rect width="4.186" height="4.186" transform="translate(11.86 31.396)" fill="#3bb6d5"/><rect width="4.186" height="4.186" transform="translate(23.72 31.396)" fill="#3bb6d5"/><rect width="4.186" height="4.186" transform="translate(35.583 31.396)" fill="#165670"/><rect width="4.186" height="4.186" transform="translate(47.443 31.396)" fill="#fff"/><rect width="4.186" height="4.186" transform="translate(59.303 31.396)" fill="#cfd9e8"/><rect width="4.186" height="4.186" transform="translate(71.164 31.396)" fill="#cfd9e8"/><rect width="4.185" height="4.186" transform="translate(0 41.861)" fill="#fff"/><rect width="4.186" height="4.186" transform="translate(11.86 41.861)" fill="#fff"/><rect width="4.186" height="4.186" transform="translate(23.72 41.861)" fill="#fff"/><rect width="4.186" height="4.186" transform="translate(35.583 41.861)" fill="#fff"/><rect width="4.186" height="4.186" transform="translate(47.443 41.861)" fill="#fff"/><rect width="4.186" height="4.186" transform="translate(59.303 41.861)" fill="#cfd9e8"/><rect width="4.186" height="4.186" transform="translate(71.164 41.861)" fill="#cfd9e8"/><rect width="4.185" height="4.186" transform="translate(0 52.326)" fill="#7d55c7"/><rect width="4.186" height="4.186" transform="translate(11.86 52.326)" fill="#fff"/><rect width="4.186" height="4.186" transform="translate(23.72 52.326)" fill="#fff"/><rect width="4.186" height="4.186" transform="translate(35.583 52.326)" fill="#fff"/><rect width="4.186" height="4.186" transform="translate(47.443 52.326)" fill="#fff"/><rect width="4.186" height="4.186" transform="translate(59.303 52.326)" fill="#cfd9e8"/><rect width="4.186" height="4.186" transform="translate(71.164 52.326)" fill="#cfd9e8"/></g><g transform="translate(183.306 30.546)"><line y2="75.935" transform="translate(131.309)" fill="none" stroke="#bac2c6" stroke-miterlimit="10" stroke-width="0.246"/><line y2="75.935" transform="translate(100.366)" fill="none" stroke="#bac2c6" stroke-miterlimit="10" stroke-width="0.246"/><line y2="75.935" transform="translate(69.423)" fill="none" stroke="#bac2c6" stroke-miterlimit="10" stroke-width="0.246"/><line y2="75.935" transform="translate(38.479)" fill="none" stroke="#bac2c6" stroke-miterlimit="10" stroke-width="0.246"/><rect width="61.886" height="75.935" transform="translate(69.423)" fill="#fff" opacity="0.34"/><rect width="154.715" height="75.935" transform="translate(7.537)" fill="none" stroke="#bac2c6" stroke-miterlimit="10" stroke-width="0.246"/><line x1="154.715" transform="translate(7.537 63.28)" fill="none" stroke="#bac2c6" stroke-miterlimit="10" stroke-width="0.246"/><line x2="154.715" transform="translate(7.537 50.623)" fill="none" stroke="#bac2c6" stroke-miterlimit="10" stroke-width="0.246"/><line x2="154.715" transform="translate(7.537 37.969)" fill="none" stroke="#bac2c6" stroke-miterlimit="10" stroke-width="0.246"/><line x2="154.715" transform="translate(7.537 25.311)" fill="none" stroke="#bac2c6" stroke-miterlimit="10" stroke-width="0.246"/><line x2="154.715" transform="translate(7.537 12.654)" fill="none" stroke="#bac2c6" stroke-miterlimit="10" stroke-width="0.246"/><g transform="translate(2.703 73.571)"><path d="M3643.164,1853.643c0,1.119-.415,1.736-1.144,1.736-.643,0-1.079-.6-1.088-1.69,0-1.1.476-1.711,1.144-1.711C3642.769,1851.978,3643.164,1852.6,3643.164,1853.643Zm-1.787.05c0,.856.264,1.342.668,1.342.456,0,.673-.532.673-1.372,0-.81-.208-1.341-.668-1.341C3641.66,1852.322,3641.376,1852.8,3641.376,1853.694Z" transform="translate(-3640.932 -1851.978)" fill="#bac2c6"/></g><g transform="translate(0.45 60.875)"><path d="M3638.164,1833.113h-.01l-.572.309-.086-.339.719-.385h.38v3.291h-.43Z" transform="translate(-3637.495 -1832.642)" fill="#bac2c6"/><path d="M3643.164,1834.278c0,1.119-.415,1.737-1.144,1.737-.643,0-1.079-.6-1.088-1.691s.476-1.711,1.144-1.711C3642.769,1832.613,3643.164,1833.23,3643.164,1834.278Zm-1.787.051c0,.856.264,1.342.668,1.342.456,0,.673-.532.673-1.372,0-.81-.208-1.342-.668-1.342C3641.66,1832.957,3641.376,1833.433,3641.376,1834.329Z" transform="translate(-3638.678 -1832.613)" fill="#bac2c6"/></g><g transform="translate(0.151 48.18)"><path d="M3637.04,1816.594v-.273l.349-.34c.84-.8,1.221-1.225,1.225-1.721a.587.587,0,0,0-.653-.643,1.117,1.117,0,0,0-.7.278l-.142-.313a1.443,1.443,0,0,1,.931-.334.926.926,0,0,1,1.007.957c0,.608-.44,1.1-1.133,1.767l-.264.243v.01h1.478v.37Z" transform="translate(-3637.04 -1813.248)" fill="#bac2c6"/><path d="M3643.164,1814.913c0,1.119-.415,1.737-1.144,1.737-.643,0-1.079-.6-1.088-1.691,0-1.1.476-1.711,1.144-1.711C3642.769,1813.248,3643.164,1813.865,3643.164,1814.913Zm-1.787.051c0,.855.264,1.342.668,1.342.456,0,.673-.532.673-1.372,0-.81-.208-1.341-.668-1.341C3641.66,1813.592,3641.376,1814.068,3641.376,1814.964Z" transform="translate(-3638.38 -1813.248)" fill="#bac2c6"/></g><g transform="translate(0.136 35.484)"><path d="M3637.138,1796.717a1.488,1.488,0,0,0,.729.207c.572,0,.749-.364.744-.637-.005-.461-.42-.658-.851-.658h-.248v-.334h.248c.324,0,.734-.167.734-.557,0-.263-.166-.5-.577-.5a1.2,1.2,0,0,0-.658.218l-.116-.324a1.559,1.559,0,0,1,.86-.254c.648,0,.941.385.941.785a.817.817,0,0,1-.607.774v.01a.857.857,0,0,1,.734.846c0,.526-.41.987-1.2.987a1.669,1.669,0,0,1-.855-.223Z" transform="translate(-3637.017 -1793.882)" fill="#bac2c6"/><path d="M3643.164,1795.547c0,1.119-.415,1.737-1.144,1.737-.643,0-1.079-.6-1.088-1.691s.476-1.711,1.144-1.711C3642.769,1793.882,3643.164,1794.5,3643.164,1795.547Zm-1.787.051c0,.855.264,1.341.668,1.341.456,0,.673-.532.673-1.372,0-.81-.208-1.341-.668-1.341C3641.66,1794.226,3641.376,1794.7,3641.376,1795.6Z" transform="translate(-3638.365 -1793.882)" fill="#bac2c6"/></g><g transform="translate(0 22.789)"><path d="M3638.337,1777.893v-.9h-1.528v-.293l1.467-2.1h.48v2.045h.461V1777h-.461v.9Zm0-1.245v-1.1c0-.172,0-.344.015-.516h-.015c-.1.192-.182.334-.273.486l-.8,1.119v.01Z" transform="translate(-3636.809 -1774.547)" fill="#bac2c6"/><path d="M3643.164,1776.183c0,1.118-.415,1.736-1.144,1.736-.643,0-1.079-.6-1.088-1.691s.476-1.71,1.144-1.71C3642.769,1774.518,3643.164,1775.135,3643.164,1776.183Zm-1.787.051c0,.855.264,1.341.668,1.341.456,0,.673-.532.673-1.372,0-.81-.208-1.342-.668-1.342C3641.66,1774.861,3641.376,1775.338,3641.376,1776.234Z" transform="translate(-3638.229 -1774.518)" fill="#bac2c6"/></g><g transform="translate(0.136 10.093)"><path d="M3639,1755.611h-1.255l-.127.846a1.691,1.691,0,0,1,.268-.021,1.388,1.388,0,0,1,.709.178.938.938,0,0,1,.471.846,1.141,1.141,0,0,1-1.225,1.123,1.6,1.6,0,0,1-.82-.2l.111-.339a1.468,1.468,0,0,0,.7.182.726.726,0,0,0,.78-.713c-.005-.426-.288-.729-.947-.729a3.56,3.56,0,0,0-.456.035l.213-1.579H3639Z" transform="translate(-3637.017 -1755.181)" fill="#bac2c6"/><path d="M3643.164,1756.817c0,1.118-.415,1.736-1.144,1.736-.643,0-1.079-.6-1.088-1.69,0-1.1.476-1.711,1.144-1.711C3642.769,1755.152,3643.164,1755.77,3643.164,1756.817Zm-1.787.051c0,.855.264,1.342.668,1.342.456,0,.673-.532.673-1.372,0-.81-.208-1.341-.668-1.341C3641.66,1755.5,3641.376,1755.972,3641.376,1756.868Z" transform="translate(-3638.365 -1755.152)" fill="#bac2c6"/></g><g transform="translate(21.894 79.728)"><path d="M3670.83,1861.759h-.009l-.536.289-.081-.317.674-.361h.355v3.082h-.4Z" transform="translate(-3670.204 -1861.37)" fill="#bac2c6"/></g><g transform="translate(52.562 79.676)"><path d="M3716.983,1864.425v-.256l.327-.318c.789-.749,1.144-1.147,1.148-1.612a.55.55,0,0,0-.612-.6,1.053,1.053,0,0,0-.654.261l-.132-.294a1.351,1.351,0,0,1,.873-.313.867.867,0,0,1,.943.9c0,.569-.413,1.029-1.062,1.656l-.246.228v.009h1.384v.346Z" transform="translate(-3716.983 -1861.291)" fill="#bac2c6"/></g><g transform="translate(83.496 79.676)"><path d="M3764.283,1863.946a1.386,1.386,0,0,0,.682.194c.536,0,.7-.341.7-.6,0-.431-.393-.616-.8-.616h-.232v-.313h.232c.3,0,.688-.157.688-.522,0-.246-.157-.465-.541-.465a1.125,1.125,0,0,0-.616.2l-.109-.3a1.464,1.464,0,0,1,.806-.237c.607,0,.882.36.882.735a.765.765,0,0,1-.569.725v.01a.8.8,0,0,1,.687.792c0,.494-.383.925-1.123.925a1.57,1.57,0,0,1-.8-.209Z" transform="translate(-3764.169 -1861.291)" fill="#bac2c6"/></g><g transform="translate(114.316 79.728)"><path d="M3812.612,1864.452v-.839h-1.432v-.275l1.375-1.968h.45v1.916h.431v.327h-.431v.839Zm0-1.166v-1.029q0-.242.014-.484h-.014c-.094.18-.171.313-.256.455l-.755,1.048v.01Z" transform="translate(-3811.18 -1861.37)" fill="#bac2c6"/></g><g transform="translate(145.392 79.728)"><path d="M3860.435,1861.721h-1.176l-.118.792a1.665,1.665,0,0,1,.251-.019,1.305,1.305,0,0,1,.663.166.879.879,0,0,1,.441.792,1.069,1.069,0,0,1-1.147,1.053,1.507,1.507,0,0,1-.768-.19l.1-.317a1.38,1.38,0,0,0,.659.17.679.679,0,0,0,.73-.668c0-.4-.27-.683-.886-.683a3.126,3.126,0,0,0-.426.033l.2-1.479h1.475Z" transform="translate(-3858.581 -1861.37)" fill="#bac2c6"/></g><g transform="translate(7.537)"><path d="M3648.305,1829.529l30.942-12.657,30.943-13.543,30.943-12.5h31.228l30.658-12.4" transform="translate(-3648.305 -1753.073)" fill="none" stroke="#7d55c7" stroke-miterlimit="10" stroke-width="1.419"/><path d="M3648.305,1803.036l30.942-12.656,30.943,12.656,30.943-11.752,30.943-38.088,30.942-13.44" transform="translate(-3648.305 -1739.757)" fill="none" stroke="#3bb6d5" stroke-miterlimit="10" stroke-width="1.419"/><path d="M3837.939,1759.327a1.771,1.771,0,1,1-1.77-1.771A1.771,1.771,0,0,1,3837.939,1759.327Z" transform="translate(-3712.397 -1745.887)" fill="#fff" stroke="#3bb6d5" stroke-miterlimit="10" stroke-width="1.419"/><path d="M3790.742,1817.423a1.771,1.771,0,1,1-1.771-1.771A1.772,1.772,0,0,1,3790.742,1817.423Z" transform="translate(-3696.141 -1765.896)" fill="#fff" stroke="#3bb6d5" stroke-miterlimit="10" stroke-width="1.419"/><path d="M3743.542,1835.35a1.771,1.771,0,1,1-1.771-1.771A1.773,1.773,0,0,1,3743.542,1835.35Z" transform="translate(-3679.886 -1772.07)" fill="#fff" stroke="#3bb6d5" stroke-miterlimit="10" stroke-width="1.419"/><path d="M3696.344,1816.045a1.771,1.771,0,1,1-1.771-1.771A1.773,1.773,0,0,1,3696.344,1816.045Z" transform="translate(-3663.63 -1765.422)" fill="#fff" stroke="#3bb6d5" stroke-miterlimit="10" stroke-width="1.419"/><path d="M3789.655,1796.648a1.771,1.771,0,1,1-1.771-1.771A1.771,1.771,0,0,1,3789.655,1796.648Z" transform="translate(-3695.767 -1758.741)" fill="#fff" stroke="#7d55c7" stroke-miterlimit="10" stroke-width="1.419"/><path d="M3837.9,1796.648a1.771,1.771,0,1,1-1.771-1.771A1.771,1.771,0,0,1,3837.9,1796.648Z" transform="translate(-3712.384 -1758.741)" fill="#fff" stroke="#7d55c7" stroke-miterlimit="10" stroke-width="1.419"/></g></g></g><g transform="translate(622.159 81.605)"><path d="M3869.328,1838.7l1.238-15.881c2.681-3.228,6.272-5.092,10.069-4.8,7.326.573,12.645,8.957,11.885,18.729s-7.315,17.227-14.644,16.659c-5.123-.4-9.26-4.629-11.026-10.476A5.743,5.743,0,0,0,3869.328,1838.7Z" transform="translate(-3830.087 -1817.995)" fill="#163f59"/><path d="M3902.431,1846.723c.443,2.5-2.049,5.024-5.571,5.647l-8.022,1.426c-3.521.624-6.729-.894-7.173-3.39l-4.038-22.76c-.444-2.5,2.049-5.023,5.567-5.651l8.029-1.421c3.514-.628,6.726.893,7.17,3.386Z" transform="translate(-3833.782 -1818.835)" fill="#163f59"/><path d="M3881.611,1869.109c-4.655,2.39-7.094,1.9-3.333,3.2,1.9,2.04,24.206-2.445,25.246-5.32.173-.481-9.049-1.221-9.123-1.565a28.959,28.959,0,0,1-.441-12.023.677.677,0,0,0-.641-.591c-1.7.159-3.418.289-5.131.452-.281.032-3.586.993-2.733,2.552C3886.113,1860.2,3886.54,1866.581,3881.611,1869.109Z" transform="translate(-3833.389 -1829.986)" fill="#e9d6b8"/><path d="M3879.5,1847.513c-.091-.153-.175-.309-.262-.47-.023-.047-.049-.092-.074-.145-.106-.195-.2-.4-.3-.609l-.076-.167c-.069-.156-.139-.316-.206-.478-.039-.09-.075-.18-.11-.267-.056-.138-.107-.273-.163-.414-.038-.1-.072-.194-.107-.291-.067-.183-.128-.366-.191-.558-.044-.137-.087-.28-.133-.428-.04-.125-.082-.258-.117-.386s-.075-.265-.11-.4c-.032-.114-.063-.229-.09-.349-.026-.093-.05-.183-.075-.277v-.01a42.931,42.931,0,0,1,.717-13.081,1.175,1.175,0,0,1,1.241-.807c3.982.182,16-1.171,13.607,10.014v.009c0,.031-.116.985-.181,1.425-.006.039-.012.075-.019.113-.069.442-.144.878-.231,1.3-.005.031-.012.058-.017.082-.093.435-.188.859-.3,1.272a.307.307,0,0,0-.011.044c-1.387,5.289-4.181,8.907-7.4,8.9-1.875-.007-3.6-1.249-4.977-3.329h0c-.01-.02-.024-.036-.031-.052-.1-.159-.206-.321-.3-.49A1.305,1.305,0,0,1,3879.5,1847.513Z" transform="translate(-3833.673 -1821.57)" fill="#e9d6b8"/><path d="M3813.1,1874.121s-.818.455-1.207-.159a12.982,12.982,0,0,1-1.094-4.255c-.1-.954.162-5.523.162-5.523a5.34,5.34,0,0,1,.913,3.2A23.179,23.179,0,0,0,3813.1,1874.121Z" transform="translate(-3810.775 -1833.903)" fill="#e2c59c"/><path d="M3813.229,1873.608c-.858-1.5-.586-3.477.293-5.736a3.921,3.921,0,0,0,.05-3.393,27.777,27.777,0,0,0-1.635,4.778,8.535,8.535,0,0,0-.394,3.034C3811.85,1875.283,3815.449,1877.456,3813.229,1873.608Z" transform="translate(-3811.031 -1834.005)" fill="#e2c59c"/><path d="M3883.884,2264.337a37.056,37.056,0,0,1,6.753-1.714c2.9-.55,5.106-.536,6.155-1.623,1.718-1.8.618-7.47,1.464-7.277,4.1.944,5.645,10.7,3.251,11.9s-15.916.771-17.024.685S3883.535,2264.075,3883.884,2264.337Z" transform="translate(-3835.864 -1968.063)" fill="#e9d6b8"/><path d="M3923.556,2097.754q-.856-3.63-1.741-7.145c-1.971-3.45-3.685-5.286-4.986-5.063-4.915.854-9.281,20.047,6.394,66.471.789,2.333,11.126,42.681,11.281,41.714C3936.451,2181.753,3932,2133.611,3923.556,2097.754Z" transform="translate(-3845.736 -1910.137)" fill="#e9d6b8"/><path d="M3914.752,1996.669c-3.92-.639-3.954,1.623-6.651,7.286-5.292,11.1-8.086,27.488-5.813,44.891,2.658,20.387,8.254,38.138,14.826,49.271,3.777-9.587,5.544-21.1,6.954-33.853C3928.468,2024.591,3926.791,1998.627,3914.752,1996.669Z" transform="translate(-3842.019 -1879.496)" fill="#e9d6b8"/><path d="M3910.994,2065.141a57.851,57.851,0,0,1,15.231-1.754c-.311,6.689-.91,14.028-1.754,21.927-5.838-6.247-17.128-2.825-19.679.287-.917-4.407-1.7-9-2.313-13.745-.179-1.365-.319-2.725-.435-4.074C3904.918,2066.81,3907.9,2065.918,3910.994,2065.141Z" transform="translate(-3842.208 -1902.507)" fill="#e2c59c"/><path d="M3950.521,1915.934c-5.806,5.306-11.063,29.462-11.063,29.462s.686,9.575,13.588-20.67C3956.919,1915.64,3951.957,1914.627,3950.521,1915.934Z" transform="translate(-3855.094 -1851.567)" fill="#e9d6b8"/><path d="M3859.53,1904.144c-4.171,3.513-7.32,15.133-9.867,22.526a13.27,13.27,0,0,0-.62,7.192s2.094,9.422,11.776-17.239C3863.244,1909.95,3861.095,1902.826,3859.53,1904.144Z" transform="translate(-3823.875 -1847.611)" fill="#e9d6b8"/><path d="M3843.146,1930.545c-.67-9.581-19.435-33.74-19.435-33.74s-9.5-7.035,9.319,29.02C3838.681,1936.651,3843.311,1932.906,3843.146,1930.545Z" transform="translate(-3814.405 -1844.947)" fill="#e9d6b8"/><path d="M3813.466,1874.6l-.7.509-.308,2.967s1.656,5.113,2.975,6.817,3.642,9.61,4.19,10.47,5.278.509,5.278.509-4.292-7.372-5.744-10.441-2.019-8.154-2.542-9.377a34.087,34.087,0,0,1-1.236-3.2s-1.05.636.167,3.994c.32.884-.841.772-.841.772Z" transform="translate(-3811.354 -1836.892)" fill="#e9d6b8"/><path d="M3880.068,2020.273c4.894,9.979,8.354,25.047,8.1,41.4-.287,19.159-3,36.06-7,46.865-3.629-8.669-5.367-19.381-8.04-31.048C3864.9,2041.541,3877.574,2015.179,3880.068,2020.273Z" transform="translate(-3831.308 -1887.445)" fill="#e9d6b8"/><path d="M3872.515,2068.205c-1.193-6.41-.435-17.7,3.4-20.949.946-1.16,1.491-.516,3.189.068,3.289,1.132,6.6,4.456,8.913,9.806.2,3.647.292,7.407.255,11.246-.038,4.242-.156,4.889-.336,8.866C3886.616,2075.846,3881.094,2069.505,3872.515,2068.205Z" transform="translate(-3831.86 -1896.733)" fill="#e2c59c"/><path d="M3884.506,2109.265c1.913-.983,5.4,1.438,7.819,6.254,4.745,9.432,6.231,22.363,7.079,38.35.89,16.907.925,29.512.687,39.935-.232,10.289,4.106,24.667-3.655,23.3.914-14.155-1.439-35.124-5.6-46.113C3876.645,2133.456,3878.629,2112.276,3884.506,2109.265Z" transform="translate(-3834.635 -1918.238)" fill="#e9d6b8"/><path d="M3877.212,1909.141l30.016-2.169,1.485-34.586-35.427,5.656Z" transform="translate(-3832.304 -1836.728)" fill="#9676ca"/><path d="M3918.25,2027.906q-25.706-2.115-51.415-4.228c-1.931.156,8.928-31.986,7.982-97.1q15.123-1.247,30.25-2.49C3903.56,1936.964,3930.491,1958.248,3918.25,2027.906Z" transform="translate(-3830.003 -1854.535)" fill="#9676ca"/><path d="M3939.732,1906.114l-16.427-20.557-4.223-9.654a4.786,4.786,0,0,1,1.717-2.265l.554-.4a4.8,4.8,0,0,1,6.691,1.111l18.822,26.294Z" transform="translate(-3848.076 -1836.713)" fill="#9676ca"/><path d="M3857.921,1921.245l8.94-22.652,3.17-15.625a4.755,4.755,0,0,0-2.352-1.59l-.654-.2a4.8,4.8,0,0,0-5.981,3.192l-10.506,31.087Z" transform="translate(-3824.469 -1839.683)" fill="#9676ca"/><path d="M3938.323,1966.925a1.03,1.03,0,0,0,1.287.678l1.305-.411a1.026,1.026,0,0,0,.672-1.285l-1.839-5.88a1.03,1.03,0,0,0-1.29-.678l-1.3.414a1.028,1.028,0,0,0-.675,1.288Z" transform="translate(-3854.052 -1866.663)" fill="#e9d6b8"/><path d="M3945.288,2249.784c3.072,6.457,6.946,11.036,8.652,10.22s.6-6.707-2.474-13.163-6.95-11.034-8.659-10.219S3942.211,2243.327,3945.288,2249.784Z" transform="translate(-3855.972 -1962.143)" fill="#7d55c7"/><path d="M3944.331,2242.485c1.549,5.044,4.945,8.716,6.652,7.906s1.147-5.125-1.332-9.781c-3.132-5.894-4.334-7.586-4.549-11.778C3944.9,2224.9,3938.5,2223.523,3944.331,2242.485Z" transform="translate(-3855.93 -1958.656)" fill="#e9d6b8"/><path d="M3909.763,2261.334a.179.179,0,0,1-.174.175h-.345a.175.175,0,0,1-.171-.175h0a.171.171,0,0,1,.171-.17h.345a.175.175,0,0,1,.174.17Z" transform="translate(-3844.63 -1970.628)" fill="#e9d6b8"/><path d="M3883.393,2268.581c-.766,3.234,9.163,1.929,11.726,1.087a29.82,29.82,0,0,1,4.021-1.058c.1,0,.2-.013.308-.014a1.883,1.883,0,0,1,.035.231c0,1.776.783,4.135-2.053,4.135h-17.8C3865.088,2272.96,3883.413,2268.5,3883.393,2268.581Z" transform="translate(-3832.557 -1973.182)" fill="#7d55c7"/><path d="M3813.645,1876.467s-.994-2.559-.661-3.9c.233-.928,2.058-5.129,2.058-5.129a5.371,5.371,0,0,1-.248,3.323A18.232,18.232,0,0,0,3813.645,1876.467Z" transform="translate(-3811.512 -1835.024)" fill="#e9d6b8"/><path d="M3815.654,1879.563s.773.128,1.014-.13a4.5,4.5,0,0,1-.032.723c-.019.454.428,3.515.428,3.515a25.672,25.672,0,0,0-1.1-2.723,12.441,12.441,0,0,1-.73-2.024,3.979,3.979,0,0,1-.02-.443Z" transform="translate(-3812.303 -1838.827)" fill="#e2c59c"/><path d="M3816.811,1877c-.82-2.259-.612-3.283-.385-3.716.186.534.506,1.386,1.015,2.568a16.566,16.566,0,0,1,.6,2.431,4.19,4.19,0,0,0-.955,2.338c-.036.338-.78-1.634-.958-2.849C3816.432,1877.768,3817.059,1877.681,3816.811,1877Z" transform="translate(-3812.619 -1837.038)" fill="#e2c59c"/><path d="M3891.691,1841.171a5.749,5.749,0,0,0,2.48-4.232l1.236-15.88c.128-.154.267-.289.4-.434l.279-.051c3.514-.628,6.726.893,7.17,3.386l4.037,22.763c.344,1.927-1.074,3.86-3.35,4.934a9.261,9.261,0,0,1-1.221-.013C3897.6,1851.243,3893.458,1847.017,3891.691,1841.171Z" transform="translate(-3838.643 -1818.835)" fill="#163f59"/></g><g transform="translate(119.561 231.807)"><g transform="translate(0 18.446)"><path d="M3058.664,2161.663a13.214,13.214,0,0,1-8.743-3.162c-4.393-3.819-6.3-10.615-5.656-20.193.431-6.468,2.977-13.013,5.67-19.944,4.535-11.659,9.677-24.875,6.988-42.351l4.993-.77c2.893,18.817-2.742,33.309-7.27,44.952-2.662,6.843-4.961,12.756-5.34,18.447-.518,7.767.824,13.3,3.883,16.008a8.382,8.382,0,0,0,6.68,1.875l1.01,4.952A11.79,11.79,0,0,1,3058.664,2161.663Z" transform="translate(-3044.144 -2075.242)" fill="#367082"/></g><g transform="translate(12.279 122.628)"><g transform="translate(4.228 22.318)"><path d="M3106.066,2268.2l4.921,7.5-41.321,13.237s-2.76-2.64,7.379-7.941C3088.849,2274.82,3106.066,2268.2,3106.066,2268.2Z" transform="translate(-3069.324 -2268.199)" fill="#88bdda"/><path d="M3133.979,2268.2l-4.918,7.5,41.318,13.237s2.76-2.64-7.379-7.941C3151.194,2274.82,3133.979,2268.2,3133.979,2268.2Z" transform="translate(-3089.898 -2268.199)" fill="#88bdda"/></g><rect width="8.633" height="30.74" transform="translate(40.324)" fill="#88bdda"/><g transform="translate(8.965 23.898)"><path d="M3108,2270.609l4.209,7.159-35.37,12.63s-2.362-2.519,6.315-7.58C3093.264,2276.926,3108,2270.609,3108,2270.609Z" transform="translate(-3076.549 -2270.609)" fill="#91e2f6"/><path d="M3135.192,2270.609l-4.209,7.159,35.372,12.63s2.361-2.519-6.315-7.58C3149.932,2276.926,3135.192,2270.609,3135.192,2270.609Z" transform="translate(-3095.297 -2270.609)" fill="#91e2f6"/></g><path d="M3079.952,2303.554a3,3,0,1,1-3-3A3,3,0,0,1,3079.952,2303.554Z" transform="translate(-3066.689 -2257.024)" fill="#001f46"/><path d="M3184.49,2303.554a3,3,0,1,1-3-3A3,3,0,0,1,3184.49,2303.554Z" transform="translate(-3102.693 -2257.024)" fill="#001f46"/><path d="M3068.875,2303.554a3,3,0,1,1-3-3A3,3,0,0,1,3068.875,2303.554Z" transform="translate(-3062.874 -2257.024)" fill="#367082"/><path d="M3195.567,2303.554a3,3,0,1,1-3-3A3,3,0,0,1,3195.567,2303.554Z" transform="translate(-3106.508 -2257.024)" fill="#367082"/></g><rect width="6.318" height="11.055" transform="translate(53.649 111.363)" fill="#367082"/><path d="M3134.543,2204.829a6.158,6.158,0,0,1-6.157,6.159h-3.475a6.159,6.159,0,0,1-6.159-6.159h0a6.156,6.156,0,0,1,6.159-6.157h3.475a6.155,6.155,0,0,1,6.157,6.157Z" transform="translate(-3069.84 -2099.307)" fill="#367082"/><path d="M3152.952,2191.564c.151-.725.239-5.271.239-6.053,0-4.973-3.214-9-7.178-9h-80c-3.965,0-7.18,4.027-7.18,9,0,.781.088,5.328.238,6.053Z" transform="translate(-3049.203 -2091.674)" fill="#3dc7c9"/><path d="M3057.708,2201.744c0,1.522.889,2.755,1.986,2.755h91.858c1.1,0,1.991-1.233,1.991-2.755h0c0-1.521-.893-2.756-1.991-2.756h-91.858c-1.1,0-1.986,1.235-1.986,2.756Z" transform="translate(-3048.816 -2099.416)" fill="#367082"/><g transform="translate(9.061)"><path d="M3064.342,2100.8c1.975.146,14.513.368,16.673.392,13.726.169,25.552-2.408,26.207-5.79a117.077,117.077,0,0,0,.356-42.508c-.583-3.378-12.585-5.954-26.6-5.783-2.2.025-15,.25-17.012.4A115,115,0,0,1,3064.342,2100.8Z" transform="translate(-3060.032 -2047.106)" fill="#3dc7c9"/><path d="M3060.389,2047.718c-1.537.018-2.607.749-2.4,1.63a114.766,114.766,0,0,1,.43,50.047c-.191.884.871,1.612,2.375,1.629h0c1.5.018,2.892-.684,3.086-1.57a115.064,115.064,0,0,0-.328-50.167c-.209-.886-1.625-1.587-3.167-1.569Z" transform="translate(-3057.966 -2047.316)" fill="#367082"/><path d="M3060.505,2100.883a33.653,33.653,0,0,0,3.6.239c2.99.036,6.071-2.6,6.667-5.927a115.261,115.261,0,0,0-.192-41.865,7.368,7.368,0,0,0-6.828-5.922,35.241,35.241,0,0,0-3.671.241A114.885,114.885,0,0,1,3060.505,2100.883Z" transform="translate(-3058.694 -2047.209)" fill="#33a8b5"/></g></g><g transform="translate(150.429 160.39)"><path d="M3098,1937.943h-6.773v3.47A8.344,8.344,0,0,1,3098,1937.943Z" transform="translate(-3091.229 -1937.943)" fill="#dce5ea"/></g><g transform="translate(135.212 136.125)"><path d="M3126.759,1969.423s-11.7,4.179-.467,37.723,18.724,29.477,18.724,29.477l9.288-.9,17.82-21.127-9.593-8.387-1.938.771s-2.48-1.025-2.768-3.332-4.135-8.053-11.749-26.547C3141.84,1966.813,3129.007,1968.6,3126.759,1969.423Z" transform="translate(-3086.408 -1924.441)" fill="#aebddc"/><path d="M3186.291,2041.251s18.609,21.332,31.316,32.225c6.112,5.238,11.027,3.436,3.631,5.9-2.723.909-28.919-8.679-43.117-16.793-9.532-5.447-6.7-11.871-1.362-15.43C3182.2,2043.521,3186.291,2041.251,3186.291,2041.251Z" transform="translate(-3103.778 -1949.407)" fill="#e2c59c"/><path d="M3162.07,2028.386l5.854-3.792,2.43-1.383a5.091,5.091,0,0,0,2.564,2.524l-4.887,2.008-5.327,3.424-5.5,6.61Z" transform="translate(-3098.733 -1943.194)" fill="#cfd9e8"/><path d="M3129.969,2064.3l-43.732-.947s-17.189-45.025-18.179-60.879c-.576-9.2,4.914-29.456,14.294-33.994,2.088-1.01,8.608-3.6,11.783-3.81,18.417-1.237,30.827,3.994,30.827,3.994S3142.743,1977.939,3129.969,2064.3Z" transform="translate(-3068.017 -1922.968)" fill="#cfd9e8"/><path d="M3261.51,2259.1s-4.253,6.558-6.425,2.536c-6.521-12.063-12.4-50.149-12.764-65.775-.5-20.843-1.446-33.549-1.446-33.549l20.966-7.6Z" transform="translate(-3127.551 -1988.483)" fill="#163f59"/><path d="M3148.01,2116.03,3222,2141.361l-19.406,10.828s-76.306,13.383-77.664-14.936C3123.782,2113.429,3148.01,2116.03,3148.01,2116.03Z" transform="translate(-3087.603 -1975.133)" fill="#163f59"/><path d="M3219.836,2260.719s-3.832,3.512-6-.51c-6.519-12.065-17.213-44.118-17.583-59.745-.492-20.841,2.948-35.337,2.948-35.337l21.427-7.438Z" transform="translate(-3112.165 -1989.51)" fill="#194866"/><path d="M3113.706,2117.022l70.544,26.617-19.324,10.518s-71.592,13.381-72.978-14.934S3113.706,2117.022,3113.706,2117.022Z" transform="translate(-3076.239 -1975.312)" fill="#194866"/><path d="M3090.058,2140.164c-.182,1.95.956,8.463,3.128,11.081,6.678,8.068,22.5,5.363,35.11,5.363.693,0,4.209-9.84,4.209-9.84l5.266-32.187-44.226.752A214.265,214.265,0,0,0,3090.058,2140.164Z" transform="translate(-3075.602 -1974.663)" fill="#194866"/><path d="M3199.67,2084.458l16.193-2.907s2.519-.271,2.637,1.472c.152,2.3-.262,9.8-.262,9.8l-2.906-1.8-4.173,2.545-4.838-6.405a12.5,12.5,0,0,1-4.584-.044C3201.041,2086.948,3199.67,2084.458,3199.67,2084.458Z" transform="translate(-3113.359 -1963.282)" fill="#e9d6b8"/><path d="M3133.248,2078.987l42.874,4.757s-23,11.75-33.532,11.824a94.03,94.03,0,0,1-20.408-2.345Z" transform="translate(-3086.672 -1962.404)" fill="#e9d6b8"/><path d="M3094.693,2000.352l21.421,40.534-1.227,3.29,3.3.612-10,15.918-15.694-3.579-19.177-45.27s-6.789-19.167,6.96-31.772C3083.9,1976.758,3092.8,1997.1,3094.693,2000.352Z" transform="translate(-3069.261 -1928.215)" fill="#aebddc"/><path d="M3115.109,2087.829s10.139-7.749,15.289-11.978l-.536,1.435,3.3.609-3.5,5.476-6.075,7.067-3.48-1.273,1.318-2.482Z" transform="translate(-3084.236 -1961.324)" fill="#cfd9e8"/><path d="M3235.721,2320.558a4.771,4.771,0,0,1,.078,2.262s-6.61,1.089-8.725.437a9.838,9.838,0,0,1-2.346-1.479c-.146-.114-.4-.8-.541-.913-.268-.212-.409.148-.635-.043a7.628,7.628,0,0,1-1-.936c-.537-4.121.248-5.792.248-5.792s5.646-2.622,6.681-.859C3231.918,2317.381,3234.907,2319.2,3235.721,2320.558Z" transform="translate(-3121.176 -2042.872)" fill="#194866"/><path d="M3261.473,2315.37l.938,5.98h5s.278-.847.7-.847c.355,0,.819.847,1.3.847h12.724s.229-1.258-.049-1.69a4.385,4.385,0,0,0-1.535-.8c-2.586-.887-10.407-2.818-12.147-5.591C3267.058,2311.115,3261.473,2315.37,3261.473,2315.37Z" transform="translate(-3134.645 -2042.884)" fill="#163f59"/><rect width="7.715" height="10.893" transform="translate(22.925 43) rotate(-66.282)" fill="#aebddc"/><g transform="translate(11.476)"><path d="M3118.385,1917.519a5.3,5.3,0,0,1-4.411,6.062L3094.2,1926.7a5.3,5.3,0,0,1-6.059-4.413h0a5.3,5.3,0,0,1,4.41-6.06l19.777-3.115a5.3,5.3,0,0,1,6.06,4.409Z" transform="translate(-3086.401 -1905.251)" fill="#163f59"/><path d="M3115.311,1930.243a9.8,9.8,0,0,1-8.151,11.2l-10.318,1.625a9.8,9.8,0,0,1-11.2-8.15h0a9.794,9.794,0,0,1,8.149-11.195l10.321-1.625a9.8,9.8,0,0,1,11.2,8.147Z" transform="translate(-3085.522 -1908.327)" fill="#163f59"/><path d="M3133.072,1939.421l-4.763-30.245c-.76-4.819-3.906.614-8.723,1.373l-4.652.734a8.833,8.833,0,0,0-7.351,10.1l3.391,21.522Z" transform="translate(-3093.082 -1903.24)" fill="#e9d6b8"/><path d="M3111.093,1936.482a3.88,3.88,0,0,1-3.231,4.434h0a3.876,3.876,0,0,1-4.434-3.228h0a3.877,3.877,0,0,1,3.229-4.436h0a3.881,3.881,0,0,1,4.436,3.229Z" transform="translate(-3091.673 -1912.195)" fill="#e9d6b8"/><path d="M3139.613,1936.382a2.213,2.213,0,0,0,2.5,1.885l1.789-.281a2.213,2.213,0,0,0,1.795-2.563s-5.731-10.863-6.918-10.676a3.668,3.668,0,0,0-.624,2.376Z" transform="translate(-3103.638 -1909.281)" fill="#e9d6b8"/><path d="M3121.4,1954.564c-8.725,1.376-10.053-1.157-10.792-4.177,0,0-1.117,8.027-.728,10.495l.433,2.752c.837,5.317,6.985,8.768,13.728,7.706l12.213-1.924-2.137-13.565-.506-3.209Z" transform="translate(-3093.883 -1918.112)" fill="#163f59"/><path d="M3138.5,1945.255l-6.981,1.1a5.816,5.816,0,0,0-4.461,8.155l12.587-1.983Z" transform="translate(-3099.651 -1916.345)" fill="#163f59"/><path d="M3132.494,1956.109l.3,1.938a.982.982,0,0,0,1.122.818l5.654-.891a.987.987,0,0,0,.821-1.124l-.307-1.939Z" transform="translate(-3101.699 -1919.671)" fill="#e9d6b8"/><path d="M3122.406,1902.74l-17.892,2.819a3.534,3.534,0,0,0-2.94,4.04l1.1,6.98,21.383-3.368Z" transform="translate(-3091.036 -1901.702)" fill="#163f59"/><path d="M3139.6,1905.661a5.336,5.336,0,0,1-4.438,6.1l-12.112,1.907a5.34,5.34,0,0,1-6.1-4.441h0a5.334,5.334,0,0,1,4.442-6.1l12.114-1.91a5.334,5.334,0,0,1,6.1,4.439Z" transform="translate(-3096.323 -1901.157)" fill="#163f59"/><rect width="4.896" height="12.886" transform="translate(13.323 12.03) rotate(-8.96)" fill="#163f59"/><rect width="14.409" height="15.17" transform="matrix(0.988, -0.156, 0.156, 0.988, 13.967, 6.319)" fill="#163f59"/><path d="M3115.508,1928.423a7.285,7.285,0,0,1,6.066-8.331l3.717-.587c3.974-.627,6.613,2.262,7.239,6.238h0a7.289,7.289,0,0,1-6.068,8.335l-2.624.414a7.287,7.287,0,0,1-8.331-6.068Z" transform="translate(-3095.818 -1907.447)" fill="#e9d6b8"/></g></g><g transform="translate(222.103 219.234)"><path d="M3200.593,2098.282c-.012-.023-.028-.048-.037-.068l.037-2.1h86.877v2.1a.112.112,0,0,1,0,.068l-.222.391c-1.118,1.817-3.12,2.146-5.413,2.146h-75.6c-2.293,0-4.3-.328-5.417-2.146Z" transform="translate(-3200.556 -2051.309)" fill="#b4c0c7"/><path d="M3221.961,2099.067s.014.037,0,.058l-.215.315a3.537,3.537,0,0,1-1.272,1.07h-13.209c-2.207,0-4.134-.265-5.208-1.734l-.21-.32c-.011-.018-.027-.034-.037-.051l.021-1.036h20.13Z" transform="translate(-3200.988 -2051.74)" fill="#d6e3eb"/><g transform="translate(32.697 45.293)"><rect width="43.413" height="1.482" fill="#8599a4"/></g><g transform="translate(21.456)"><path d="M3233.283,2072.5l11.262-42.689a2.839,2.839,0,0,1,2.575-2.04h60.953a1.517,1.517,0,0,1,1.5,2.04l-11.262,42.689Z" transform="translate(-3233.283 -2027.769)" fill="#d7dfe2"/><path d="M3285.785,2059.81a2.939,2.939,0,0,0,2.905,3.946,5.492,5.492,0,0,0,4.988-3.946,2.94,2.94,0,0,0-2.906-3.951A5.494,5.494,0,0,0,3285.785,2059.81Z" transform="translate(-3251.318 -2037.443)" fill="#b4c0c7"/></g></g><g transform="translate(541.974 243.914)"><g transform="translate(77.967 16.693)"><path d="M3811.049,2169.232a11.967,11.967,0,0,0,7.913-2.86c3.974-3.456,5.7-9.6,5.118-18.273-.391-5.853-2.693-11.776-5.132-18.048-4.1-10.55-8.754-22.509-6.321-38.323l-4.52-.694c-2.617,17.024,2.482,30.136,6.578,40.673,2.41,6.193,4.49,11.543,4.833,16.694.468,7.028-.745,12.037-3.515,14.484a7.586,7.586,0,0,1-6.042,1.7l-.917,4.48A10.63,10.63,0,0,0,3811.049,2169.232Z" transform="translate(-3807.392 -2091.035)" fill="#367082"/></g><g transform="translate(3.063 110.962)"><g transform="translate(3.627 20.197)"><path d="M3757.176,2265.634l-4.452,6.788,37.391,11.978s2.5-2.388-6.68-7.185C3772.755,2271.625,3757.176,2265.634,3757.176,2265.634Z" transform="translate(-3717.288 -2265.634)" fill="#88bdda"/><path d="M3731.919,2265.634l4.452,6.788-37.389,11.978s-2.5-2.388,6.677-7.185C3716.342,2271.625,3731.919,2265.634,3731.919,2265.634Z" transform="translate(-3698.671 -2265.634)" fill="#88bdda"/></g><rect width="7.812" height="27.818" transform="translate(36.29)" fill="#88bdda"/><g transform="translate(7.912 21.626)"><path d="M3758.276,2267.815l-3.81,6.477,32,11.431s2.139-2.28-5.713-6.859C3771.612,2273.532,3758.276,2267.815,3758.276,2267.815Z" transform="translate(-3722.172 -2267.815)" fill="#91e2f6"/><path d="M3733.672,2267.815l3.808,6.477-32.008,11.431s-2.137-2.28,5.715-6.859A250.391,250.391,0,0,1,3733.672,2267.815Z" transform="translate(-3705.207 -2267.815)" fill="#91e2f6"/></g><path d="M3797.76,2297.628a2.714,2.714,0,1,0,2.713-2.718A2.711,2.711,0,0,0,3797.76,2297.628Z" transform="translate(-3729.171 -2255.521)" fill="#001f46"/><path d="M3703.165,2297.628a2.715,2.715,0,1,0,2.715-2.718A2.712,2.712,0,0,0,3703.165,2297.628Z" transform="translate(-3696.592 -2255.521)" fill="#001f46"/><path d="M3807.781,2297.628a2.716,2.716,0,1,0,2.717-2.718A2.714,2.714,0,0,0,3807.781,2297.628Z" transform="translate(-3732.622 -2255.521)" fill="#367082"/><path d="M3693.139,2297.628a2.716,2.716,0,1,0,2.716-2.718A2.712,2.712,0,0,0,3693.139,2297.628Z" transform="translate(-3693.139 -2255.521)" fill="#367082"/></g><rect width="5.715" height="10.002" transform="translate(40.503 100.771)" fill="#367082"/><path d="M3743.706,2208.291a5.574,5.574,0,0,0,5.573,5.573h3.144a5.573,5.573,0,0,0,5.571-5.573h0a5.57,5.57,0,0,0-5.571-5.572h-3.144a5.571,5.571,0,0,0-5.573,5.572Z" transform="translate(-3707.491 -2112.807)" fill="#367082"/><path d="M3689.7,2196.287c-.135-.655-.215-4.769-.215-5.475,0-4.5,2.91-8.148,6.5-8.148h72.39c3.586,0,6.494,3.648,6.494,8.148,0,.706-.079,4.82-.213,5.475Z" transform="translate(-3688.816 -2105.9)" fill="#3dc7c9"/><path d="M3775.184,2205.5c0,1.377-.8,2.492-1.8,2.492h-83.122c-.994,0-1.8-1.115-1.8-2.492h0c0-1.378.805-2.5,1.8-2.5h83.122c.993,0,1.8,1.117,1.8,2.5Z" transform="translate(-3688.466 -2112.906)" fill="#367082"/><g transform="translate(41.939)"><path d="M3793.164,2114.161c-1.787.134-13.134.334-15.089.356-12.418.152-23.12-2.181-23.713-5.239a105.985,105.985,0,0,1-.322-38.465c.53-3.057,11.389-5.389,24.07-5.233,2,.021,13.576.224,15.4.357A104.036,104.036,0,0,0,3793.164,2114.161Z" transform="translate(-3752.437 -2065.572)" fill="#3dc7c9"/><path d="M3814.263,2066.125c1.389.016,2.359.677,2.168,1.474a103.9,103.9,0,0,0-.39,45.288c.176.8-.786,1.458-2.147,1.474h0c-1.362.018-2.62-.619-2.792-1.421a104.082,104.082,0,0,1,.3-45.4c.187-.8,1.467-1.438,2.863-1.42Z" transform="translate(-3771.83 -2065.762)" fill="#367082"/><path d="M3812.26,2114.232a30.653,30.653,0,0,1-3.256.215,6.537,6.537,0,0,1-6.032-5.361,104.255,104.255,0,0,1,.173-37.882,6.665,6.665,0,0,1,6.179-5.36,31.876,31.876,0,0,1,3.32.218A103.986,103.986,0,0,0,3812.26,2114.232Z" transform="translate(-3769.274 -2065.665)" fill="#33a8b5"/></g></g><g transform="translate(460.165 155.072)"><g transform="translate(26.2 46.805)"><g transform="translate(0 47.95)"><g transform="translate(0 2.472)"><path d="M3675.109,2082.32s-.087,3.163-15.43,3.177-37.87-3.76-37.87-3.76l35.395-3.344S3670.793,2077.758,3675.109,2082.32Z" transform="translate(-3609.9 -2078.362)" fill="#e2c59c"/><path d="M3627.625,2084.073c-7.292.231-10.309,3.984-13.166,5.209a50.992,50.992,0,0,0-5.689,3.02c1.525-3.172,3.88-3.335,5.028-4.381s.857-.533-1.747-.642c-1.479-.064-3.992,2.62-5.818,4.124a5.925,5.925,0,0,1-2.589,1.428,32.255,32.255,0,0,1,4.146-4.885,37.4,37.4,0,0,1,7.192-5.266c1.54-.658,6.413-.983,9.9-.631C3628.819,2082.45,3632.878,2083.907,3627.625,2084.073Z" transform="translate(-3603.643 -2079.582)" fill="#e2c59c"/><path d="M3616.33,2083.286s-5.541,1.6-6.5,2.366c-.668.532-3.424,3.618-3.424,3.618a7.282,7.282,0,0,0,3.248-1.571C3610.828,2086.528,3616.33,2083.286,3616.33,2083.286Z" transform="translate(-3604.596 -2080.058)" fill="#e2c59c"/></g><path d="M3684.223,2074.592s14.149.4,13.465,8.807c-.384,4.777-3.552,6.54-7.828,6.344-7.949-.37-16.971-1.214-16.971-1.214l-4.459-12.877Z" transform="translate(-3625.956 -2074.592)" fill="#b0bfde"/></g><path d="M3695.4,2050.459l12.343-43.573s1.817-6.385,5.217-5.313c4.9,1.541,2.681,6.788,2.362,9.867-.65,6.272.02,8.971-3.928,24.179-2.432,9.375-4.446,20.152-6.642,26.338-1.509,4.264-4.536-1.665-8.862-3.2C3687.816,2055.891,3695.4,2050.459,3695.4,2050.459Z" transform="translate(-3634.132 -2001.452)" fill="#b0bfde"/></g><path d="M3733.4,1976.957a17.978,17.978,0,1,0,13.692-21.1A17.789,17.789,0,0,0,3733.4,1976.957Z" transform="translate(-3621.988 -1938.788)" fill="#171c26"/><path d="M3706.883,1958.484a13.515,13.515,0,0,0,16.146,10.233l1.9-7a13.515,13.515,0,0,0,10.231-16.145l-1.109-4.944a13.515,13.515,0,0,0-16.143-10.237l-3.3.739a13.518,13.518,0,0,0-10.233,16.145Z" transform="translate(-3612.021 -1930.058)" fill="#171c26"/><path d="M3708.624,1942.033a26.873,26.873,0,0,0,1.149,3.644c3.229,8.171,9.822,13.45,15.623,12.983a41.146,41.146,0,0,0,4.16,9.8c1.8,3.106,6.5,5.758,6.5,5.758,2.278,5.7-20.544,24.8-21.518,24.3-2.075-1.059,1.64-14.774,5.373-19.021,1.752-1.995,3.536-4.341,3.573-5.684.131-4.707-1.363-5.708-3.63-7.862a11.061,11.061,0,0,0-8.526-1.922,1.549,1.549,0,0,1-1.221-.239,9.523,9.523,0,0,1-1.032-2.664l-2.437-10.875A9.544,9.544,0,0,1,3708.624,1942.033Z" transform="translate(-3612.835 -1934.182)" fill="#46352a"/><path d="M3735.1,2084.437s-5.846,5.3-7.491,5.765c-2.2.629-8.359-2.033-8.359-2.033s1.7-27.457,1.066-38.336-3.187-14.027-2.9-17.388c.472-5.372-3.89-8.114-2.6-12.21s4.524-18.813,4.747-16.77c1.9,17.4,8.572,3.982,9.906,1.881C3730.206,2004.19,3735.1,2084.437,3735.1,2084.437Z" transform="translate(-3615.652 -1955.274)" fill="#fece40"/><path d="M3720.853,1996.225s-7.737,5.673-7.63,8.292-4,10.365-2.336,22.006c1.9,13.289,2.607,22.212,2.215,30.693s-4.3,15.826-4.428,26.262c-.106,8.176,1.768,8.905,1.768,8.905a6.786,6.786,0,0,0,6.64-1.458c3.031-2.794,2.494-30.779,2.034-37.823s-2.655-23.635-3.167-28.478a51.489,51.489,0,0,1,.634-13.607,57.646,57.646,0,0,1,3.248-11.8c.153-.376,2.162-1.987,2.292-2.281C3722.668,1995.668,3721.487,1995.512,3720.853,1996.225Z" transform="translate(-3613.615 -1952.701)" fill="#d1dbea"/><path d="M3727.9,1992.093s1.608-.333.238,1.5a3.82,3.82,0,0,0-.791,1.9s-.694-.73-1.74.317c-.95.948-2.454,2.135-2.454,2.135a26.388,26.388,0,0,1,1.187-2.927C3725.125,1994.313,3727.9,1992.093,3727.9,1992.093Z" transform="translate(-3618.603 -1951.415)" fill="#b0bfde"/><path d="M3741.2,2012.914a18.778,18.778,0,1,0,14.3-22.042A18.583,18.583,0,0,0,3741.2,2012.914Z" transform="translate(-3624.668 -1950.842)" fill="#171c26"/><path d="M3671.96,2270.353l3.509,26.919-15.173,6.964-8.423,1.777,14.948-11.162-4.89-24.289Z" transform="translate(-3594.054 -2047.259)" fill="#46352a"/><path d="M3674.463,2314.2l-3.292.856-2.21-1.987-12.122,5.886-10.751,2.458a1.987,1.987,0,0,1,.229-1.3c1.354-1.7,8.881-5.5,8.881-5.5s.122,2.5,1.193,2.567,10.358-4.642,12.506-5.953c3.7-2.261,4.388-3.664,4.671-3.489C3674.312,2308.205,3674.463,2314.2,3674.463,2314.2Z" transform="translate(-3592.053 -2060.132)" fill="#161711"/><path d="M3607.2,2211.771l-12.052,22.942-16.676-.817-8.292-2.306,18.412-3.013,10.056-19.6Z" transform="translate(-3565.918 -2026.12)" fill="#46352a"/><path d="M3591.916,2250l-3.313-.757-1.044-2.783-14.952-.213-8.926-2.027a7.535,7.535,0,0,1,1.745-1.436c1.988-.8,9.047-1.214,9.047-1.214s-.744,1.954.174,2.51,11.192.892,13.7.713c4.324-.3,5.583-1.223,5.756-.938C3594.551,2244.609,3591.916,2250,3591.916,2250Z" transform="translate(-3563.68 -2037.346)" fill="#161711"/><path d="M3708.809,2108.582l-8.994,3.909-3.911,11.734-57.855-9.523s-5.895-1.817-9.646,7.491c-5.342,13.25-18.935,54.441-18.935,54.441l8.606,9,26.985-46.543s55.3,25.937,73.53,20.338c6.994-2.15,12.34-14.505,11.341-26.988a159.94,159.94,0,0,0-2.737-18.772Z" transform="translate(-3579.449 -1991.544)" fill="#194866"/><path d="M3715.9,2172.675l-44.25-3.182,3.806,68.275-13.049.417-9.638-79.963s2.6-11.9,11.051-10.106S3692.718,2165.579,3715.9,2172.675Z" transform="translate(-3594.363 -2005.096)" fill="#163f59"/><path d="M3739.121,2084.258s-1.065-27.778-1.878-40.956-.634-38.6-.81-41.77a38.654,38.654,0,0,1,.694-7.635s4-6.828,8.464-6.235c3.923.524,9.974,5.986,13.771,8.517,3.71,2.473,3.3,48.922,3.481,51.26.672,8.437,5.7,16.77,9.488,24.875,2.431,5.2,2.992,13.4,2.992,13.4S3752.791,2081.394,3739.121,2084.258Z" transform="translate(-3623.169 -1949.884)" fill="#d1dbea"/><path d="M3744.273,1984.381l-3.176,3.129-4.468,4.8,2.264,5.378,7.885-11.059Z" transform="translate(-3623.245 -1948.767)" fill="#b0bfde"/><g transform="translate(48.671 99.919)"><path d="M3724.368,2091.076s-.481,3.394-18.671,1.389-44.454-9.047-44.454-9.047l42.361,1.064S3719.792,2085.591,3724.368,2091.076Z" transform="translate(-3645.952 -2082.796)" fill="#e9d6b8"/><path d="M3667.389,2085.892c-8.676-.714-12.694,2.932-16.227,3.876a63.153,63.153,0,0,0-7.1,2.5c2.186-3.216,5-3.083,6.482-4.061s1.078-.458-1.991-.923c-1.748-.263-5.047,2.3-7.39,3.677a7.356,7.356,0,0,1-3.242,1.2,35.735,35.735,0,0,1,5.5-4.717,44.515,44.515,0,0,1,9.152-4.728c1.9-.508,7.718-.215,11.812.629C3669,2084.3,3673.64,2086.4,3667.389,2085.892Z" transform="translate(-3637.919 -2082.469)" fill="#e9d6b8"/><path d="M3654.4,2083.145s-6.754.991-7.979,1.693c-.854.487-4.488,3.451-4.488,3.451a9.153,9.153,0,0,0,4.037-1.27C3647.5,2085.912,3654.4,2083.145,3654.4,2083.145Z" transform="translate(-3639.301 -2082.702)" fill="#e9d6b8"/></g><path d="M3736.231,2054.351l2.02-42.987s2.319-9.006,5.7-11.073c4.007-2.453,9.513,2.093,9.513,2.093s2.821,6.713.929,38.408c-1.268,21.2-3.221,32.177-13.274,30.628-9.38-1.446-19.974-3.545-19.974-3.545l-3.763-14.461Z" transform="translate(-3616.615 -1953.996)" fill="#b0bfde"/></g><g transform="translate(444.256 218.476)"><path d="M3644.6,2098.269c.013-.024.026-.049.037-.069l-.037-2.131h-88.285v2.131a.13.13,0,0,0,0,.069l.226.4c1.133,1.848,3.171,2.18,5.5,2.18h76.829c2.33,0,4.365-.333,5.5-2.18Z" transform="translate(-3545.232 -2050.534)" fill="#d0dee6"/><path d="M3658.522,2099.066a.078.078,0,0,0,0,.058l.219.321a3.627,3.627,0,0,0,1.29,1.086h13.427c2.243,0,4.2-.269,5.292-1.763l.211-.325c.014-.018.028-.035.04-.054l-.023-1.051h-20.456Z" transform="translate(-3580.434 -2050.972)" fill="#b6c2c9"/><g transform="translate(22.06 46.026)"><rect width="44.114" height="1.507" fill="#b6c2c9"/></g><path d="M3617.013,2072.067l-11.446-43.38a2.883,2.883,0,0,0-2.617-2.074h-61.942a1.543,1.543,0,0,0-1.523,2.074l11.444,43.38Z" transform="translate(-3539.414 -2026.613)" fill="#f1f0f6"/><path d="M3600.064,2059.174a2.985,2.985,0,0,1-2.951,4.01,5.587,5.587,0,0,1-5.071-4.01,2.988,2.988,0,0,1,2.954-4.015A5.579,5.579,0,0,1,3600.064,2059.174Z" transform="translate(-3557.492 -2036.445)" fill="#b6c2c9"/></g><g transform="translate(94.086 268.627)"><g transform="translate(84.934 4.689)"><path d="M3153.813,2254.812h9.038l-14.91-144.392h-13.1Z" transform="translate(-3134.839 -2110.42)" fill="#acd5f4"/><path d="M3136.173,2117.074l17.535,44.561-4.971-47.959-.336-3.257h-11.452Z" transform="translate(-3135.298 -2110.42)" fill="#86bbd8"/></g><path d="M3014.324,2254.812h-9.038l14.91-144.392h13.1Z" transform="translate(-3005.286 -2105.731)" fill="#acd5f4"/><path d="M3040.079,2117.074l-5.744,43.728-6.819-47.126.336-3.257H3039.3Z" transform="translate(-3012.942 -2105.731)" fill="#86bbd8"/><path d="M3600.963,2254.812h-9.035l14.909-144.392h13.1Z" transform="translate(-3207.33 -2105.731)" fill="#acd5f4"/><path d="M3626.72,2117.074l-5.747,43.728-6.818-47.126.337-3.257h11.453Z" transform="translate(-3214.985 -2105.731)" fill="#86bbd8"/><path d="M3740.454,2254.812h9.038l-14.909-144.392h-13.1Z" transform="translate(-3251.948 -2105.731)" fill="#acd5f4"/><path d="M3722.813,2117.074l17.539,44.561-4.975-47.959-.335-3.257H3723.59Z" transform="translate(-3252.407 -2105.731)" fill="#86bbd8"/><rect width="277.572" height="8.438" transform="translate(217.711)" fill="#367082"/><rect width="387.242" height="8.438" transform="translate(4.135)" fill="url(#c)"/></g><g transform="translate(331.917 147.32)"><path d="M3400.114,2289.633l-1.453,7.577h-7.726s-.427-1.075-1.077-1.075c-.553,0-1.265,1.075-2.015,1.075h-19.652s-.348-1.594.081-2.144a7.487,7.487,0,0,1,2.371-1.015c3.99-1.122,15.412-4.624,17.394-8.435C3390.457,2280.977,3400.114,2289.633,3400.114,2289.633Z" transform="translate(-3368.058 -2044.293)" fill="#161711"/><path d="M3404.059,2145.828s2.21,12.37,4.049,28.18c1.353,11.609,1.387,44.763-.752,67.8-.131,1.408-14.773-2.882-14.773-2.882s-5.344-64.459-6.57-78.889S3395.271,2136.832,3404.059,2145.828Z" transform="translate(-3374.208 -1995.364)" fill="#163f59"/><path d="M3451.075,2269.954c-.585-.7-.159-2.557-.159-2.557s10.168-1.135,13.439-.362a16.922,16.922,0,0,1,3.637,1.71c.227.13.629.911.858,1.04.4.243.621-.167.966.051a12.043,12.043,0,0,1,1.556,1.075c.894,4.663-.295,6.547-.295,6.547s-8.371,2.6-10.278.873C3455.947,2273.943,3452.347,2271.5,3451.075,2269.954Z" transform="translate(-3396.543 -2038.272)" fill="#161711"/><path d="M3449,2163.775s-8.1-4.732-6.035,7.964c4.981,30.635,9.561,53.093,11.706,63.266.833,3.951,2.11,3.326,2.11,3.326l9.309,1.513,4.7-3.2-8.7-69.247Z" transform="translate(-3393.74 -2002.503)" fill="#163f59"/><g transform="translate(15.219)"><path d="M3394.393,2157.221c1.223,1.589,42.917,22.661,44.842,22.661h34.276c1.925,0,15.86-2.038,18.882-11.2,3.194-9.682,0-26.93,0-26.93a3.56,3.56,0,0,0-3.487-3.63h-42.7c-1.925,0-5.811,1.625-5.811,3.63l-41.464-1.33S3385.316,2145.42,3394.393,2157.221Z" transform="translate(-3391.273 -1993.967)" fill="#194866"/><path d="M3477.555,2177.985h-39.237c-.416,0-34.292-9.24-34.67-9.348l4.086,13.162c0,2.005,33.838,8.591,35.763,8.591h34.276c1.926,0,15.86-2.038,18.882-11.2a35.857,35.857,0,0,0,1.41-10.28C3493.161,2176.266,3479.577,2177.985,3477.555,2177.985Z" transform="translate(-3395.535 -2004.475)" fill="#163f59"/><path d="M3488.483,1970.128l-1.849-8.368s-6.523.456-7.786-2.743c-2.562-6.418-.42-16.676,1.121-19.55,4.4-8.181,6.262-22.512,26.822-11.117,7.821,4.337-4.256,25.348-5.155,29.9s1.775,9.784,1.775,9.784l-4.812,3.288Z" transform="translate(-3421.025 -1920.26)" fill="#c8b393"/><path d="M3439,2081.939l35.261,12.515s-41.578,2.988-41.738.57C3431.65,2081.746,3439,2081.939,3439,2081.939Z" transform="translate(-3405.456 -1974.615)" fill="#e9d6b8"/><path d="M3546.439,2006.741s7.015,3.324,12.063,30.322,1.83,25.971,1.83,25.971l-.918,6.151-13.11,1.092-7.084-23.308Z" transform="translate(-3442.227 -1948.716)" fill="#fec12f"/><path d="M3519.607,2000.713l-17.27-7.141-4.763-4.107-18.359-.4-3.215,4.823-14.229,5.623s-3.511,5.03-.456,23.707c3.382,20.7-.058,74.242-.058,74.242l58.1.827S3514.562,2010.758,3519.607,2000.713Z" transform="translate(-3414.966 -1942.627)" fill="#fece40"/><path d="M3452.088,2004.751s-3.2-3.253-11,5.584c-13.3,15.067-19.74,33.754-21.115,37.372s-2.93,12.54,2.516,18.551c4.157,4.6,8.169,2.9,8.169,2.9l12.708-9.929-4.085-2.067-2.785-.207s6.426-12.861,13.311-24.516S3452.088,2004.751,3452.088,2004.751Z" transform="translate(-3400.705 -1947.829)" fill="#fece40"/><path d="M3484.952,1939.846s2.328-1.3,2.683.323-.895,5.213-1.967,5.542-1.425,4.724-1.425,4.724l2.858,4.888h14.476s4.471-1.791,4.832-4.723,3.928-23.625,3.928-23.625l-10.185-4.889a71.327,71.327,0,0,0-9.121-3.422c-5.761-1.5-6.969,1.3-6.789,2.769s-1.611,1.63-3.934,1.63-5.189,1.626-3.936,2.606c.521.4-1.791,1.692-.879,3.247,1.315,2.222,5.7,2.946,6.063,6.531C3481.719,1937.071,3482.456,1942.448,3484.952,1939.846Z" transform="translate(-3420.206 -1918.233)" fill="#194866"/></g><g transform="translate(36.656 185.267)"><path d="M3425.206,2214.453c-.137-.657-.217-4.769-.217-5.478,0-4.5,2.909-8.146,6.5-8.146h72.388c3.589,0,6.5,3.646,6.5,8.146,0,.709-.081,4.821-.216,5.478Z" transform="translate(-3424.321 -2200.83)" fill="#36afb1"/><path d="M3510.69,2223.666c0,1.376-.8,2.491-1.8,2.491H3425.77c-.993,0-1.8-1.115-1.8-2.491h0c0-1.378.806-2.5,1.8-2.5h83.123c.992,0,1.8,1.117,1.8,2.5Z" transform="translate(-3423.971 -2207.836)" fill="#2c5b6a"/><g transform="translate(9.42 34.198)"><g transform="translate(3.625 20.197)"><path d="M3502.373,2283.8l-4.451,6.786,37.389,11.978s2.5-2.388-6.676-7.186C3517.953,2289.791,3502.373,2283.8,3502.373,2283.8Z" transform="translate(-3462.486 -2283.801)" fill="#88bdda"/><path d="M3477.118,2283.8l4.45,6.786-37.387,11.978s-2.5-2.388,6.676-7.186C3461.539,2289.791,3477.118,2283.8,3477.118,2283.8Z" transform="translate(-3443.87 -2283.801)" fill="#88bdda"/></g><rect width="7.811" height="27.817" transform="translate(36.288)" fill="#88bdda"/><g transform="translate(7.91 21.627)"><path d="M3503.476,2285.982l-3.811,6.477,32,11.43s2.139-2.279-5.713-6.859A250.1,250.1,0,0,0,3503.476,2285.982Z" transform="translate(-3467.37 -2285.982)" fill="#91e2f6"/><path d="M3478.869,2285.982l3.809,6.477-32.008,11.43s-2.135-2.279,5.715-6.859A250.239,250.239,0,0,1,3478.869,2285.982Z" transform="translate(-3450.405 -2285.982)" fill="#91e2f6"/></g><path d="M3542.958,2315.792a2.714,2.714,0,1,0,2.713-2.716A2.714,2.714,0,0,0,3542.958,2315.792Z" transform="translate(-3474.371 -2273.687)" fill="#001f46"/><path d="M3448.362,2315.792a2.715,2.715,0,1,0,2.718-2.716A2.716,2.716,0,0,0,3448.362,2315.792Z" transform="translate(-3441.792 -2273.687)" fill="#001f46"/><path d="M3552.98,2315.792a2.716,2.716,0,1,0,2.715-2.716A2.715,2.715,0,0,0,3552.98,2315.792Z" transform="translate(-3477.823 -2273.687)" fill="#367082"/><path d="M3438.34,2315.792a2.714,2.714,0,1,0,2.715-2.716A2.714,2.714,0,0,0,3438.34,2315.792Z" transform="translate(-3438.34 -2273.687)" fill="#367082"/></g><rect width="5.713" height="10.003" transform="translate(46.859 24.005)" fill="#2c5b6a"/><path d="M3488.9,2226.456a5.573,5.573,0,0,0,5.573,5.573h3.145a5.573,5.573,0,0,0,5.572-5.573h0a5.571,5.571,0,0,0-5.572-5.571h-3.145a5.571,5.571,0,0,0-5.573,5.571Z" transform="translate(-3446.334 -2207.737)" fill="#2c5b6a"/><path d="M3443.207,2214.453c-.138-.657-.217-4.769-.217-5.478,0-4.5,2.909-8.146,6.5-8.146h72.39c3.586,0,6.495,3.646,6.495,8.146,0,.709-.078,4.821-.215,5.478Z" transform="translate(-3430.521 -2200.83)" fill="#3dc7c9"/><path d="M3528.69,2223.666c0,1.376-.806,2.491-1.8,2.491h-83.121c-.995,0-1.8-1.115-1.8-2.491h0c0-1.378.8-2.5,1.8-2.5h83.121c.993,0,1.8,1.117,1.8,2.5Z" transform="translate(-3430.17 -2207.836)" fill="#367082"/></g><g transform="translate(47.942 84.099)"><path d="M3519.474,2094.775a3.593,3.593,0,0,1-3.6,3.629h-68.4a4.566,4.566,0,0,1-4.323-3.6,127.85,127.85,0,0,1,0-44.69,4.564,4.564,0,0,1,4.323-3.6h68.4a3.592,3.592,0,0,1,3.6,3.63Q3519.281,2072.45,3519.474,2094.775Z" transform="translate(-3441.187 -2046.513)" fill="#33a8b5"/><path d="M3525.591,2094.773a3.63,3.63,0,0,1-3.631,3.631h-68.4a4.519,4.519,0,0,1-4.29-3.6,134.5,134.5,0,0,1,0-44.687,4.522,4.522,0,0,1,4.29-3.6h68.4a3.634,3.634,0,0,1,3.631,3.631Z" transform="translate(-3443.327 -2046.513)" fill="#3dc7c9"/></g><path d="M3465.47,2167.453c10.53-37.872-9.553-75.745-.918-113.617a2.753,2.753,0,0,0-2.713-3.632h-1.227a4.937,4.937,0,0,0-4.551,3.632c-8.634,37.873,11.449,75.745.92,113.617Z" transform="translate(-3397.603 -1963.685)" fill="#367082"/><path d="M3556.856,2167.453c10.529-37.872-9.553-75.745-.918-113.617a2.754,2.754,0,0,0-2.713-3.632H3552a4.935,4.935,0,0,0-4.55,3.632c-8.633,37.873,11.449,75.745.918,113.617Z" transform="translate(-3429.077 -1963.685)" fill="#367082"/></g><g transform="translate(730.337 279.726)"><rect width="67.522" height="9.006" transform="translate(12.74 85)" fill="#b0bfde"/><rect width="84.002" height="78" transform="translate(4.5 9)" fill="#b0bfde"/><rect width="84.002" height="68.999" transform="translate(4.5 16.001)" fill="#cfd9e8"/><rect width="56.999" height="24.001" transform="translate(18.001 18.001)" fill="#e4efff"/><rect width="17.278" height="4.062" transform="translate(37.862 21.97)" fill="#fff"/><rect width="56.999" height="24" transform="translate(18.001 49.003)" fill="#e4efff"/><rect width="17.278" height="4.062" transform="translate(37.862 52.972)" fill="#fff"/><rect width="93.002" height="9" fill="#cfd9e8"/></g><g transform="translate(737.912 169.687)"><g transform="translate(31.086 38.579)"><path d="M4039.787,2060.388s4.129-14.746,10.618-19.761,11.208-12.092,19.762-15.337,10.617-9.143,7.374-11.207-13.863-7.965-26.841,5.6-16.221,24.186-15.926,36.871S4039.2,2067.761,4039.787,2060.388Z" transform="translate(-4034.754 -2011.022)" fill="#3bb6d5"/><path d="M4073.758,2019.139s-12.977,3.835-18.875,8.259-16.813,16.812-17.4,28.9" transform="translate(-4035.694 -2013.818)" fill="none" stroke="#3096af" stroke-miterlimit="10" stroke-width="2.408"/></g><g transform="translate(21.394)"><path d="M4031.155,2044.839s-6.686-18.876-9.439-24.773-2.357-20.059,1.968-25.564,11.4-13.764,8.258-25.955-1.573-19.663,4.326-14.941,16.259,15.122,16.517,31.853c.2,12.78-3.573,20.262-10.619,29.494C4036.462,2022.424,4030.761,2036.189,4031.155,2044.839Z" transform="translate(-4019.971 -1952.175)" fill="#f8c44f"/><path d="M4033.056,2044.169s-3.542-18.878,0-26.546,11.975-21.849,12.682-31.263c.882-11.8-6.491-23.006-6.491-23.006" transform="translate(-4023.936 -1956.026)" fill="none" stroke="#f4da80" stroke-miterlimit="10" stroke-width="2.408"/></g><g transform="translate(0 51.613)"><path d="M3993.666,2043.936c-7.668-1.476-8.259-10.325-2.36-12.094s15.633-1.473,20.353,4.72c5.471,7.18,7.668,20.054,5.9,29.2s0-3.542-3.833-9.735S3999.991,2045.153,3993.666,2043.936Z" transform="translate(-3987.337 -2030.903)" fill="#194866"/><path d="M3991.59,2039.688s10.618-2.064,17.993,5.014c6.382,6.128,9.141,13.763,10.323,21.63" transform="translate(-3988.802 -2033.832)" fill="none" stroke="#161711" stroke-miterlimit="10" stroke-width="1.8"/></g><path d="M4043.359,2102.841h-21.235l-3.54-34.212H4046.9Z" transform="translate(-3998.099 -1992.284)" fill="#b0bfde"/><path d="M4021.778,2068.629l2.022,27.233h15.234l2.022-27.233Z" transform="translate(-3999.199 -1992.284)" fill="#cfd9e8"/></g></g></g></svg>